<svg xmlns="http://www.w3.org/2000/svg" viewBox="0 0 512 512"><path fill="#ffffff" d="m 144.75811,245.29971 0,37.34677 c 0,4.67989 -0.53868,7.76221 -1.6167,9.24834 -1.07803,1.48614 -2.91827,2.22784 -5.52139,2.22784 -2.57647,0 -4.496,-1.0377 -5.75791,-3.11514 -0.8415,-1.36787 -1.32754,-3.70713 -1.45947,-7.01982 l -11.00313,1.26191 c 0.026,6.179 1.57774,10.86504 4.65391,14.05879 3.07617,3.19512 7.46689,4.79199 13.17217,4.79199 4.86377,0 8.78144,-1.01992 11.75234,-3.05566 2.9709,-2.0378 5.02168,-4.74004 6.15234,-8.10537 0.84151,-2.57579 1.26192,-6.25762 1.26192,-11.04141 l 0,-36.59824 -11.63408,0 z m 64.99404,6.52695 c -2.23467,-2.90596 -5.00869,-4.79199 -8.32139,-5.66084 -2.15605,-0.579 -6.7833,-0.86611 -13.88242,-0.86611 l -18.7332,0 0,57.81562 11.67373,0 0,-21.80937 7.61181,0 c 5.28487,0 9.3208,-0.27617 12.10713,-0.82784 2.05078,-0.44775 4.06875,-1.36171 6.05391,-2.74121 1.98515,-1.37949 3.62168,-3.27988 4.91025,-5.69912 1.28858,-2.41787 1.93252,-5.40312 1.93252,-8.95234 0,-4.5999 -1.11767,-8.3542 -3.35234,-11.25879 z m -9.99756,15.91338 c -0.88047,1.28721 -2.09658,2.23467 -3.64834,2.83896 -1.55107,0.60362 -4.62725,0.90645 -9.22852,0.90645 l -6.38886,0 0,-16.40625 5.63965,0 c 4.20683,0 7.00683,0.13125 8.4,0.39375 1.89287,0.34316 3.45761,1.19629 4.69287,2.56416 1.23593,1.3665 1.8539,3.10283 1.8539,5.20625 6.9e-4,1.7083 -0.43955,3.20742 -1.3207,4.49668 z m 49.82988,4.37637 0,9.74121 13.36973,0 0,7.33701 c -1.76162,1.3665 -3.87188,2.52861 -6.33008,3.48975 -2.4582,0.95908 -4.91025,1.43896 -7.35547,1.43896 -4.94306,0 -8.93935,-1.71445 -11.98886,-5.14609 -3.0502,-3.43096 -4.57461,-8.57842 -4.57461,-15.44034 0,-6.3622 1.50527,-11.16171 4.51582,-14.3958 3.01054,-3.23408 7.06562,-4.85146 12.1666,-4.85146 3.36533,0 6.17217,0.82305 8.41982,2.46504 2.24766,1.64404 3.77891,3.88554 4.59512,6.72451 l 11.59375,-2.16904 c -1.15596,-5.31084 -3.75225,-9.47188 -7.78887,-12.48243 -4.03525,-3.01054 -9.64209,-4.51513 -16.81982,-4.51513 -5.52139,0 -10.13565,0.95908 -13.84278,2.87929 -4.86377,2.49717 -8.55791,6.08604 -11.08173,10.76592 -2.52383,4.67989 -3.78575,10.03037 -3.78575,16.05078 0,5.54805 1.13067,10.68184 3.39131,15.4 2.26133,4.72022 5.63965,8.34805 10.13565,10.88555 4.49599,2.5375 9.76718,3.80625 15.81494,3.80625 4.75918,0 9.4582,-0.90029 14.09912,-2.70225 4.64092,-1.80058 8.18262,-3.88349 10.62988,-6.24941 l 0,-23.03301 -25.16377,0 z M 419.02275,175.7167 329.85547,83.063086 C 328.58604,81.745117 326.83467,81 325.00537,81 l -132.89746,0 c -14.87295,0 -26.97324,12.095508 -26.97324,26.9623 l 0,94.1917 -53.8583,0 c -11.12754,0 -20.180374,9.0501 -20.180374,20.17491 l 0,100.99687 c 0,11.12412 9.052834,20.17422 20.180374,20.17422 l 53.8583,0 0,60.58486 c 0,14.84082 12.10029,26.91514 26.97324,26.91514 l 201.82285,0 c 14.87295,0 26.97324,-12.06748 26.97324,-26.9001 l 0,-223.71562 c 0,-1.74043 -0.6747,-3.41319 -1.88125,-4.66758 z m -92.34941,-76.546095 73.19853,76.060055 -73.19853,0 0,-76.060055 z M 111.27637,330.03867 c -3.70508,0 -6.71836,-3.01123 -6.71836,-6.71289 l 0,-100.99687 c 0,-3.70166 3.01396,-6.71358 6.71836,-6.71358 l 181.75527,0 c 3.70508,0 6.71836,3.01192 6.71836,6.71358 l 0,100.99687 c 0,3.70166 -3.01396,6.71289 -6.71836,6.71289 l -181.75527,0 z m 296.16562,74.06123 c 0,7.41016 -6.06142,13.43877 -13.51191,13.43877 l -201.82217,0 c -7.45049,0 -13.51191,-6.03476 -13.51191,-13.45312 l 0,-60.58555 114.43564,0 c 11.12754,0 20.18037,-9.0501 20.18037,-20.17422 l 0,-100.99687 c 0,-11.12481 -9.05283,-20.17491 -20.18037,-20.17491 l -114.43564,0 0,-94.1917 c 0,-7.44501 6.06142,-13.500972 13.51191,-13.500972 l 121.10342,0 0,87.500002 c 0,3.71738 3.01396,6.73066 6.73066,6.73066 l 87.5,0 0,215.40791 z" /></svg>
