<svg xmlns="http://www.w3.org/2000/svg" viewBox="0 0 512 512"><path fill="#ffffff" d="m 88.230448,378.30602 50.685912,54.72604 50.68219,-54.72604 -27.18615,0 0,-40.41617 -46.99208,0 0,40.41617 z M 86,112.86405 l 0,254.27111 18.24574,0 0,-40.41617 69.3338,0 0,40.41617 41.58166,0 -28.26227,30.52251 102.47029,17.08025 0,-335.76998 L 86,112.86405 Z m 122.87945,136.07969 c -6.91848,7.37277 -18.16009,11.45385 -31.62097,11.45385 -2.69963,0 -5.50352,-0.0633 -8.11377,-0.43566 l 0,39.02354 -16.95737,0 0,-101.24894 1.76873,-0.29789 c 7.68182,-1.28093 16.01528,-1.92884 24.75834,-1.92884 12.83532,0 22.60982,2.93421 29.04424,8.72817 6.00619,5.19445 9.32767,13.07734 9.32767,22.1816 0,9.34628 -2.75921,16.92757 -8.20687,22.52417 z m -39.73474,-38.4836 0,34.86796 c 2.21555,0.40589 4.98593,0.61068 8.40421,0.61068 14.55935,0 22.58003,-6.72858 22.58003,-18.93088 0,-14.95034 -13.23374,-17.17706 -21.1241,-17.17706 -4.43855,0 -7.77492,0.28672 -9.86014,0.6293 z m 125.5195,-92.3011 0,256.32655 131.33579,0 0,-256.32655 -131.33579,0 z m 35.48237,26.22173 0,39.97679 39.97678,0 c -2.0964,17.88826 -17.29993,31.76992 -35.75047,31.76992 -19.89157,0 -36.01112,-16.12327 -36.01112,-36.01113 0.007,-18.44681 13.89282,-33.63918 31.78481,-35.73558 z m 51.89982,174.49628 -83.67719,0 0,-11.64749 83.67719,0 0,11.64749 z m 0,-25.24987 -83.67719,0 0,-11.65121 83.67719,0 0,11.65121 z m 0,-25.23869 -83.67719,0 0,-11.65493 83.67719,0 0,11.65493 z m 0,-25.24242 -83.67719,0 0,-11.65493 83.67719,0 0,11.65493 z"/></svg>
